<svg width="1440" height="1024" viewBox="0 0 1440 1024" fill="none" xmlns="http://www.w3.org/2000/svg">
<g clip-path="url(#clip0_81_138)">
<path fill-rule="evenodd" clip-rule="evenodd" d="M0 10.2636C43.3843 23.4104 107.121 53.4691 157.014 100.694C206.808 147.825 242.43 211.621 231.147 292.742C224.078 343.571 201.605 382.477 174.872 415.709C161.481 432.355 147.056 447.535 132.94 462.116C131.226 463.887 129.514 465.65 127.809 467.407L127.809 467.408C115.538 480.053 103.596 492.358 93.1479 504.696C69.3406 532.808 52.3222 562.18 56.1881 598.673C60.0197 634.842 84.2335 676.547 138.747 729.93C242 831.042 367.245 861.05 491.233 890.757C499.075 892.636 506.912 894.514 514.739 896.408C645.548 928.073 773.771 964.423 876.361 1087H882.488L882.595 1086.91V1077.33C777.883 953.874 647.361 917.194 517.327 885.717C509.673 883.864 502.023 882.03 494.381 880.197L494.354 880.191C369.882 850.342 247.45 820.983 146.443 722.07C92.4566 669.203 70.5453 629.783 67.1269 597.514C63.7429 565.57 78.3495 539.192 101.542 511.804C111.731 499.773 123.389 487.758 135.694 475.078C137.399 473.321 139.116 471.551 140.843 469.767C154.977 455.168 169.709 439.676 183.443 422.604C210.96 388.398 234.612 347.679 242.043 294.258C253.96 208.579 216.082 141.458 164.576 92.7056C113.5 44.3612 48.648 13.654 4.05555 0L3.11019 0L0 10.2636Z" fill="#50DFFF"/>
<path fill-rule="evenodd" clip-rule="evenodd" d="M1440 343C1414.23 351.534 1386.08 363.602 1359.6 379.742C1311.52 409.041 1268.25 452.21 1255.62 512.676C1240.05 587.207 1256.57 633.856 1274.95 670.753C1278.22 677.311 1281.46 683.42 1284.56 689.258L1284.56 689.259C1290.27 700.011 1295.5 709.846 1299.48 719.878C1305.47 734.949 1308.2 749.525 1304.62 766.143C1301.16 782.238 1291.33 793.131 1276.92 803.236C1269.66 808.32 1261.4 813.102 1252.32 818.232C1251.16 818.887 1249.99 819.548 1248.81 820.215C1240.79 824.734 1232.25 829.549 1223.57 834.98C1203.59 847.49 1182.66 863.416 1164.3 887.478C1145.94 911.549 1130.35 943.514 1120.68 987.89C1120.68 987.892 1120.67 987.918 1120.65 987.977C1120.52 988.425 1120.28 989.299 1120 990.56V1023.8H1130.52C1127.3 1005.27 1130.81 992.426 1131.21 991.065C1131.28 990.82 1131.36 990.54 1131.43 990.232C1140.79 947.24 1155.77 916.796 1173.05 894.15C1190.33 871.495 1210.1 856.396 1229.41 844.304C1237.85 839.017 1246.16 834.334 1254.19 829.808L1254.19 829.807C1255.38 829.138 1256.56 828.472 1257.73 827.808C1266.79 822.689 1275.49 817.671 1283.23 812.243C1298.81 801.324 1311.1 788.347 1315.38 768.458C1319.55 749.076 1316.22 732.214 1309.71 715.817C1305.51 705.256 1299.79 694.477 1293.88 683.335L1293.88 683.334C1290.84 677.608 1287.76 671.786 1284.8 665.848C1267.18 630.495 1251.45 586.394 1266.38 514.925C1278.15 458.591 1318.63 417.594 1365.32 389.135C1389.85 374.186 1415.91 362.821 1440 354.605V343Z" fill="#50DFFF"/>
<path fill-rule="evenodd" clip-rule="evenodd" d="M805 -66C826.772 -15.3458 873.123 47.7475 957.967 75.2323C1028.6 98.1141 1063.61 119.885 1083.64 140.689C1098.73 156.368 1105.45 171.449 1112.58 187.457C1114.98 192.834 1117.42 198.316 1120.24 203.96C1126.12 215.724 1138.94 229.9 1155.49 243.728C1172.17 257.665 1193.11 271.639 1215.78 282.866C1260.7 305.101 1314.37 317.471 1354.89 294.273C1395.09 271.266 1408.31 226.91 1421.64 182.165L1421.68 182.008L1421.82 181.565C1427.18 163.561 1432.61 145.342 1439.66 127.81V101.293C1426.89 125.99 1419.03 152.395 1411.61 177.291L1411.14 178.867C1397.49 224.694 1385.19 264.26 1349.43 284.727C1313.96 305.029 1264.88 294.899 1220.67 273.009C1198.78 262.173 1178.57 248.679 1162.54 235.287C1146.39 221.787 1134.95 208.776 1130.08 199.04C1127.64 194.155 1125.41 189.14 1123.14 184.028C1115.84 167.634 1108.11 150.255 1091.56 133.061C1069.71 110.365 1032.72 87.8859 961.357 64.7677C882.61 39.258 838.522 -18.4671 817.005 -66H805Z" fill="#D9D9D9"/>
</g>
<rect x="0.5" y="0.5" width="1439" height="1023" stroke="black"/>
<defs>
<clipPath id="clip0_81_138">
<rect width="1440" height="1024" fill="white"/>
</clipPath>
</defs>
</svg>
