<svg width="200" height="200" viewBox="0 0 200 200" fill="none" xmlns="http://www.w3.org/2000/svg">
<g clip-path="url(#clip0_75_29)">
<path fill-rule="evenodd" clip-rule="evenodd" d="M200 98.523C196.396 99.5062 192.677 100.003 188.941 100H144.233C121.117 100 102.378 118.739 102.378 141.854V191.319C102.378 194.295 102.067 197.199 101.477 200C100.494 196.396 99.997 192.677 100 188.941V144.233C100 121.117 81.261 102.378 58.146 102.378H8.68C5.76326 102.379 2.85429 102.077 0 101.477C3.6043 100.494 7.32396 99.9969 11.06 100H55.767C78.883 100 97.622 81.261 97.622 58.146V8.68002C97.622 5.70402 97.932 2.80002 98.523 -0.000976562C99.5063 3.60368 100.003 7.32366 100 11.06V55.767C100 78.883 118.739 97.622 141.855 97.622H191.319C194.295 97.622 197.199 97.932 200 98.523Z" fill="url(#paint0_linear_75_29)"/>
</g>
<defs>
<linearGradient id="paint0_linear_75_29" x1="100" y1="2.34375e-05" x2="100" y2="200" gradientUnits="userSpaceOnUse">
<stop stop-color="#50DFFF"/>
<stop offset="1" stop-color="white"/>
</linearGradient>
<clipPath id="clip0_75_29">
<rect width="200" height="200" fill="white"/>
</clipPath>
</defs>
</svg>
